<svg version="1.2" xmlns="http://www.w3.org/2000/svg" viewBox="0 0 1112 1112" width="1600" height="1600"><style></style><path  d="m283 172c-21.3 4.7-43.2 15.8-60.8 30.9-6.5 5.5-17.3 19-23 28.5-7 11.6-13.3 30.5-16.7 50.1-2.6 14.4-3.1 43.2-1.1 61.5 2.2 19.7 6.9 43.1 11 54.8l1.5 4.2-10.8 21.8c-11.7 23.4-17.1 34.8-17.1 35.7 0 0.4-1.6 4.3-3.6 8.8-8.4 19-18.5 53.2-22.8 76.7-7.7 42.4-8.2 93.9-1.1 132 1.8 9.7 8.2 34.1 10.3 39 0.6 1.4 2.3 5.6 3.8 9.5 6.3 16.5 14.8 33.2 23.8 47 9.5 14.4 13.1 19.1 23.2 29.9l8.4 9v89c-0.1 84.6 0 89.1 1.7 89.6 1 0.3 17.3 0.3 36.3 0l34.5-0.5 0.1-63.8c0-47 0.3-64 1.2-64.9 0.8-0.8 4.4-0.1 14.9 3 20.5 6.1 24.8 7 42.8 9.7 9 1.3 16.9 2.6 17.5 3 0.7 0.4 1 19.4 1 57.1v56.4l35.8-0.2 35.7-0.3v-29c0-48.3 0.7-80.9 1.8-82.3 0.8-1 11.6-1.3 54.1-1.1 29.2 0.1 54.6 0.4 56.4 0.6l3.2 0.5v55.8c0 43.8 0.3 55.9 1.3 56.1 0.6 0.2 17 0.2 36.2-0.1l35-0.5 0.3-55c0.2-30.3 0.6-55.3 1-55.7 1-1 83.2-1.2 84.1-0.2 0.5 0.5-0.5 5.2-2.1 10.4-3.7 11.9-10.7 34.7-15.8 51-3.8 12.4-9.1 29.6-12.8 42-1.1 3.6-1.8 6.8-1.5 7.3 0.2 0.4 17.2 0.7 37.7 0.7h37.3l5.1-15.8c2.8-8.6 6.5-20.4 8.3-26.2 1.7-5.8 4.6-15.2 6.4-21 1.8-5.8 5.8-19.1 8.9-29.5 3.1-10.5 7.4-24.6 9.6-31.5 2.1-6.9 5.1-16.6 6.5-21.5 1.5-5 3.7-12.4 5-16.5 1.3-4.1 3.8-12.2 5.5-18 1.8-5.8 4.3-13.7 5.5-17.5 1.2-3.9 3.1-9.7 4.1-13 0.9-3.3 3.4-11.2 5.5-17.5 4.1-12.6 7.9-25.2 10.5-34.5 0.9-3.3 2.7-9.4 4-13.5 3.2-9.7 4.6-14.5 7.9-25.5 1.4-5 3.3-11.3 4.1-14 0.8-2.8 3.2-10.4 5.3-17 2.1-6.6 5.1-16.1 6.6-21 1.5-5 3.3-10.6 4.1-12.5 0.7-1.9 1.4-4.4 1.6-5.5 0.3-1.9 1.3-2 30.3-2.6 31.4-0.6 36.3-1.2 45.4-5.8 9.8-5.1 15.2-13.6 17.7-27.9 2.1-11.7 1.7-110.3-0.4-112.4-1-1-9.2-1.4-35.7-1.6l-34.5-0.4-0.2 36.9-0.3 36.8-23.5 0.7c-28.1 0.9-35.2 1.9-42.9 5.7-6.1 3.1-10 6.9-13 13-2.2 4.2-9.1 25.3-18.1 55.6-11.1 37.1-16.3 52.7-17.7 53.2-0.7 0.3-7-4.2-14-9.9-25.4-20.6-28-22.7-39.7-30.8-35-24.2-69.1-39.7-115.1-52.3-39.8-11-62.1-13.3-140.3-14.6-29.8-0.5-44.6-1.1-45.3-1.8-1.4-1.4 4.5-21 9.5-31.9 10.4-22.5 25.1-36.1 45.3-41.9 8-2.4 10-2.5 32.7-2.5 36.5 0 33.7 1.6 55.9-32.5 3.6-5.5 8.9-13.4 11.7-17.5 6.6-9.6 10.8-17.8 11.6-22.9 1-6.4-3.5-12.1-18.2-23.3-18.8-14.1-22.9-17.4-31.7-25.3-5.2-4.6-9.7-9.2-10.1-10-0.7-1.8 1.3-5.2 6.5-11.3 3.9-4.5 13.3-18.3 16.8-24.5 8.2-14.8 14.3-41.5 14.2-62.2-0.1-13.4-1.9-24.5-7.1-42-3.7-12.1-20.2-40.5-23.7-40.5-0.6 0-2.7 4.2-4.8 9.2-10.1 25.1-15.3 35.7-26.4 54.2-14.9 24.6-43.3 58.6-49.1 58.6-1.9 0-11.7-7.3-35.1-26-24-19.2-31.8-24.4-36.4-24.3-3.9 0.1-13.7 4.2-24 10.1-17.1 9.7-56.5 36.6-65.7 44.8-2.1 1.8-5.6 4.5-7.9 6-4.1 2.5-4.3 2.6-5.6 0.8-0.8-1-2.3-4.8-3.4-8.4-6.9-22.2-4.4-53.8 6.5-82.2 4.7-12.4 12.2-29.6 13.7-31.4 1.7-2.1 6.6-12.4 6.1-12.9-0.7-0.7-1.6-0.6-11.2 1.5z"/></svg>