<?xml version="1.0" standalone="no"?>
<!DOCTYPE svg PUBLIC "-//W3C//DTD SVG 20010904//EN"
 "http://www.w3.org/TR/2001/REC-SVG-20010904/DTD/svg10.dtd">
<svg version="1.0" xmlns="http://www.w3.org/2000/svg"
 width="1024.000000pt" height="1024.000000pt" viewBox="0 0 1024.000000 1024.000000"
 preserveAspectRatio="xMidYMid meet">

<g transform="translate(0.000000,1024.000000) scale(0.100000,-0.100000)"
fill="#000000" stroke="none">
<path d="M3655 9709 c-95 -114 -134 -321 -81 -434 27 -59 104 -133 174 -169
54 -27 182 -66 219 -66 13 0 23 -5 23 -11 0 -8 -15 -10 -45 -7 l-45 6 6 -33
c5 -30 3 -33 -33 -48 -22 -8 -56 -19 -76 -22 -49 -9 -86 19 -169 128 -81 107
-163 188 -215 214 -23 11 -40 16 -37 12 8 -13 -3 -11 -38 7 -16 9 -27 11 -24
5 11 -17 -3 -13 -43 11 -27 17 -33 18 -22 5 18 -22 12 -22 -61 8 -74 30 -81
31 -48 5 29 -23 16 -26 -20 -5 -30 17 -44 19 -35 5 8 -13 5 -13 -45 5 -49 17
-53 18 -46 6 3 -4 -13 -5 -37 0 -63 12 -76 9 -37 -9 l35 -16 -28 -4 c-15 -2
-25 -8 -22 -13 8 -11 -5 -11 -83 1 -35 6 -68 7 -75 3 -7 -5 1 -10 23 -14 30
-5 26 -7 -25 -9 -33 -2 -65 -3 -72 -3 -6 0 -9 -5 -7 -12 3 -7 -9 -16 -28 -22
-18 -5 -32 -14 -31 -20 1 -6 -16 -15 -38 -22 -22 -7 -37 -16 -34 -21 3 -5 -7
-16 -22 -24 -15 -8 -25 -15 -21 -16 5 0 -16 -23 -45 -51 -33 -33 -47 -53 -39
-56 10 -4 9 -9 -4 -24 -16 -18 -16 -19 0 -19 25 0 31 -28 11 -50 -16 -18 -16
-18 2 -14 14 4 19 0 19 -15 0 -12 -4 -21 -8 -21 -4 0 -8 -4 -8 -10 0 -5 9 -10
20 -10 11 0 20 -7 20 -15 0 -8 -8 -15 -17 -15 -13 0 -11 -5 10 -18 31 -19 34
-29 10 -35 -11 -3 -6 -5 12 -7 17 -1 24 -4 17 -7 -9 -4 -7 -10 7 -22 12 -10
18 -21 14 -24 -3 -4 9 -12 27 -19 30 -10 32 -12 14 -19 -15 -6 -15 -8 -3 -8
23 -1 44 -27 27 -34 -8 -4 -7 -6 4 -6 22 -1 59 -32 52 -43 -3 -4 14 -11 38
-14 24 -4 37 -9 30 -12 -24 -8 -12 -22 16 -17 27 5 26 5 -3 -7 l-30 -13 40 -5
c30 -4 40 -9 39 -22 -1 -13 6 -18 23 -18 22 0 24 -2 13 -15 -10 -12 -10 -15 3
-15 25 0 70 -27 55 -33 -7 -3 -3 -6 9 -6 12 -1 33 -6 47 -13 22 -9 24 -14 13
-26 -10 -13 -8 -14 16 -10 15 3 30 1 33 -3 3 -5 17 -9 32 -9 26 -1 27 -1 7
-17 -19 -15 -18 -15 18 -10 20 3 37 2 37 -3 0 -4 9 -6 20 -3 34 9 22 -6 -12
-16 l-33 -9 37 -1 c20 -1 49 4 64 10 28 10 28 10 10 -10 -17 -19 -17 -19 3
-14 12 3 24 9 27 14 3 5 10 9 16 9 6 0 5 -7 -3 -16 -12 -15 -11 -16 10 -9 16
5 21 4 17 -4 -9 -14 0 -14 26 0 15 8 19 8 14 0 -8 -13 39 3 64 22 8 6 6 1 -4
-11 -20 -23 -20 -23 0 -16 10 4 25 12 33 18 12 9 13 8 6 -3 -6 -11 -3 -13 13
-9 15 4 23 1 27 -12 3 -9 15 -22 28 -28 20 -9 20 -11 4 -17 -17 -7 -17 -8 0
-21 17 -14 16 -14 -7 -12 -25 3 -25 3 -25 -82 0 -85 0 -85 27 -88 33 -4 36 5
43 136 4 102 15 132 46 132 7 0 25 15 40 33 16 18 28 26 29 18 0 -11 5 -10 20
4 20 18 21 18 14 1 -6 -15 -4 -17 12 -9 10 6 34 13 53 17 27 5 32 3 27 -9 -3
-10 8 -7 34 10 33 21 40 22 40 9 0 -12 7 -10 31 11 18 14 38 24 46 21 8 -4 25
-6 38 -6 35 0 40 -62 15 -184 -20 -96 -21 -105 -6 -255 8 -86 17 -232 20 -326
6 -192 27 -338 51 -365 22 -24 91 -36 111 -20 12 11 13 10 8 -5 -5 -13 -4 -16
4 -11 7 4 12 16 12 26 0 19 14 33 39 37 27 4 32 -8 16 -33 -9 -15 -14 -34 -10
-47 5 -19 5 -20 -5 -4 -6 9 -16 17 -23 17 -8 0 -7 -4 2 -9 12 -8 12 -12 2 -25
-8 -9 -9 -16 -4 -16 5 0 10 -13 10 -30 0 -16 -3 -27 -7 -25 -4 2 -16 -33 -28
-78 -19 -76 -25 -115 -41 -272 -4 -45 -8 -55 -14 -40 -18 43 -76 235 -93 308
-10 42 -22 77 -26 77 -13 0 -8 -120 8 -190 8 -36 17 -83 21 -105 3 -22 10 -46
16 -53 8 -11 17 -45 32 -127 12 -66 39 -157 60 -202 14 -28 25 -55 25 -59 0
-3 18 -33 40 -66 22 -33 40 -62 40 -65 0 -2 21 -34 46 -69 31 -43 50 -62 56
-56 6 6 7 16 2 23 -8 14 -9 97 -1 106 12 11 50 -26 79 -75 25 -43 29 -60 23
-90 -10 -59 -16 -73 -27 -66 -8 5 -9 1 -5 -10 4 -10 1 -27 -5 -39 -7 -12 -11
-25 -10 -29 1 -5 -2 -8 -8 -8 -16 0 -42 47 -44 82 -5 50 -5 51 -21 44 -9 -3
-15 0 -15 8 0 7 -12 24 -27 38 -38 34 -122 134 -155 183 -42 61 -100 203 -161
392 -68 209 -95 311 -106 406 -7 62 -9 66 -11 27 -6 -130 -1 -238 15 -321 3
-13 8 -49 11 -79 3 -30 9 -64 14 -75 4 -11 11 -27 15 -35 3 -8 23 -44 45 -80
73 -122 113 -220 90 -220 -7 0 -9 -8 -5 -19 11 -34 -22 -32 -49 4 -14 18 -26
38 -26 44 0 6 -6 10 -12 8 -7 -1 -12 6 -12 15 1 10 -2 16 -6 13 -11 -7 -67 65
-85 109 -51 122 -86 425 -66 582 6 53 10 99 8 101 -10 9 -88 -161 -111 -241
-21 -70 -26 -110 -26 -193 l0 -104 -47 -77 c-70 -116 -105 -206 -153 -390 -10
-38 -17 -45 -72 -73 -75 -38 -157 -118 -194 -190 -38 -76 -113 -289 -107 -305
4 -12 -6 -108 -22 -213 -2 -13 -7 -60 -10 -105 -10 -127 -12 -140 -18 -156 -3
-8 -8 -44 -11 -80 -6 -67 -33 -157 -55 -184 -7 -8 -10 -20 -6 -25 8 -14 -58
-79 -87 -85 -13 -3 -32 -7 -43 -9 -18 -4 -18 -5 5 -14 41 -17 77 3 119 66 64
93 91 158 118 275 25 107 27 131 32 404 0 47 5 82 11 82 6 0 10 -19 10 -42 0
-75 17 -78 25 -5 4 38 13 68 20 71 7 2 16 17 19 33 25 103 23 99 84 122 69 26
108 24 132 -6 10 -13 25 -23 33 -23 9 0 25 -16 38 -36 21 -35 22 -42 15 -193
-4 -86 -9 -176 -10 -201 -6 -82 -37 -283 -71 -455 -18 -93 -36 -191 -40 -218
-3 -26 -11 -45 -16 -41 -5 3 -8 2 -7 -3 5 -16 -27 -78 -50 -97 -69 -54 -69
-201 -1 -269 26 -26 35 -29 71 -24 30 4 38 3 27 -4 -10 -8 -6 -9 16 -4 66 13
106 102 84 184 -17 66 -35 98 -68 122 -27 20 -28 24 -19 58 6 20 14 41 19 47
20 24 53 241 34 222 -5 -5 -10 -39 -15 -108 -1 -23 -2 -24 -10 -5 -6 14 -8 7
-5 -25 3 -32 2 -38 -3 -20 -7 21 -11 13 -21 -45 -13 -75 -31 -119 -31 -77 0
37 19 156 50 312 43 212 70 396 83 558 6 78 14 142 19 142 4 0 8 7 8 15 0 8
10 19 22 26 21 11 21 10 15 -42 -3 -30 -13 -99 -21 -154 -8 -55 -16 -119 -18
-142 -1 -24 -5 -43 -9 -43 -4 0 -9 -15 -13 -32 -13 -73 -45 -343 -41 -347 3
-2 5 4 6 15 0 11 7 1 15 -21 9 -23 15 -72 15 -117 -1 -42 4 -89 9 -103 5 -14
6 -24 2 -21 -5 3 -7 -11 -6 -30 7 -77 87 -133 196 -135 85 -2 129 20 185 92
78 99 70 94 101 57 15 -18 36 -44 47 -58 48 -61 154 -157 197 -179 26 -13 45
-28 41 -33 -3 -6 3 -7 16 -3 15 5 21 2 21 -10 0 -9 4 -14 9 -10 12 7 33 -29
23 -41 -4 -5 1 -2 11 5 12 9 17 10 17 2 0 -6 11 -16 25 -21 30 -11 89 -64 118
-104 19 -27 19 -29 3 -23 -17 7 -17 6 -5 -10 9 -11 10 -14 2 -9 -8 4 -13 1
-13 -8 0 -8 9 -20 21 -27 14 -7 19 -17 16 -30 -3 -10 -1 -21 4 -24 4 -3 6 -12
2 -20 -3 -8 -1 -15 4 -15 5 0 10 -7 10 -15 0 -8 -3 -15 -6 -15 -3 0 -7 -15 -8
-33 -1 -17 -15 -59 -31 -92 -29 -59 -45 -126 -76 -330 -9 -55 -18 -111 -21
-125 -3 -14 -12 -86 -20 -160 -8 -74 -17 -151 -19 -170 -3 -19 -5 -52 -5 -73
-1 -23 -5 -36 -11 -32 -5 3 -10 2 -10 -4 0 -5 6 -12 13 -14 9 -4 9 -7 0 -14
-9 -6 -11 -71 -8 -258 2 -138 6 -259 9 -270 2 -11 5 -25 5 -31 1 -6 10 -21 21
-34 11 -13 20 -28 20 -34 0 -6 9 -17 21 -24 11 -7 18 -18 16 -25 -2 -7 3 -21
12 -31 9 -11 10 -16 3 -12 -22 13 -64 18 -57 6 3 -5 13 -10 21 -10 26 0 14
-20 -13 -22 -16 -1 -3 -4 27 -7 30 -3 56 -6 57 -6 1 1 -2 82 -7 180 -23 458
-31 831 -20 965 23 279 51 428 105 554 l17 39 18 -40 c35 -78 108 -106 164
-62 14 11 26 23 26 27 0 4 -23 5 -50 4 -71 -5 -102 16 -98 66 2 29 9 40 33 52
17 8 32 19 34 23 6 16 46 53 81 77 19 13 39 30 43 37 4 7 12 13 18 13 5 0 36
26 68 58 105 104 202 186 286 242 97 65 120 81 189 135 81 64 187 138 241 169
28 16 52 32 55 36 3 3 25 18 50 32 54 31 176 151 160 156 -7 3 -28 -11 -48
-29 -25 -24 -29 -25 -13 -7 14 16 21 31 18 35 -4 3 -7 1 -7 -5 0 -14 -104 -97
-235 -187 -463 -319 -610 -433 -865 -670 -106 -98 -150 -134 -150 -121 0 3 14
34 31 69 l31 63 -83 88 c-46 48 -151 150 -234 225 -82 76 -211 196 -285 266
l-135 128 -5 -39 c-5 -36 -6 -34 -14 29 -4 37 -12 65 -17 62 -5 -4 -9 -1 -9 5
0 6 -5 8 -10 5 -6 -3 -10 1 -10 10 0 10 5 13 13 9 8 -5 8 -3 -2 9 -7 9 -17 15
-21 12 -4 -2 -18 7 -30 20 -25 27 -21 32 11 14 16 -8 14 -2 -10 31 -16 23 -33
54 -36 71 -4 16 -11 29 -16 29 -6 0 -8 4 -4 9 6 11 -38 138 -54 154 -18 18 -7
-45 14 -76 9 -15 14 -27 9 -27 -4 0 -3 -5 4 -12 7 -7 12 -19 12 -27 0 -11 -5
-9 -20 7 -11 12 -47 40 -80 62 -85 58 -112 96 -108 157 4 60 26 64 60 13 13
-19 34 -40 47 -46 12 -7 28 -17 34 -23 8 -8 15 1 25 36 25 87 36 142 30 148
-3 4 -47 -5 -97 -18 l-91 -24 1 46 c0 75 33 225 56 257 20 28 52 135 67 226
10 56 -12 166 -45 228 l-30 56 21 120 c24 137 30 158 38 149 3 -3 11 4 17 16
12 21 12 21 32 -7 24 -35 43 -88 43 -122 0 -27 68 -195 82 -200 4 -2 6 -7 3
-12 -6 -10 30 -74 63 -109 27 -29 62 -93 62 -113 0 -7 36 -85 79 -173 44 -88
91 -189 104 -225 14 -36 43 -103 64 -150 22 -47 54 -125 72 -175 27 -77 133
-307 115 -250 -10 31 -26 117 -28 155 -2 31 -12 55 -45 110 -5 8 -27 53 -48
100 -21 47 -62 132 -91 190 -62 123 -142 320 -142 352 0 15 49 -28 80 -69 41
-57 80 -93 148 -141 27 -20 33 -21 38 -8 3 8 1 23 -5 35 -15 27 -16 26 27 28
107 7 123 4 200 -34 110 -54 120 -76 112 -255 0 -15 8 -45 19 -67 l20 -39 -35
-99 c-19 -54 -42 -119 -50 -144 -22 -71 -63 -160 -87 -188 -29 -34 -60 -29
-83 14 -39 74 -21 22 42 -116 36 -79 74 -166 84 -194 10 -27 31 -81 47 -120
40 -95 76 -212 80 -260 4 -55 7 -75 10 -75 12 0 131 204 288 495 166 307 240
436 343 598 54 83 131 206 172 272 41 66 97 156 125 200 58 91 140 239 150
273 4 15 -1 32 -15 52 -20 28 -40 110 -28 110 13 0 103 -100 100 -110 -6 -18
19 -2 67 43 23 21 42 34 43 30 0 -4 2 -21 4 -38 2 -16 8 -64 14 -105 16 -99 8
-766 -9 -783 -6 -6 -11 -24 -11 -39 0 -15 -6 -28 -12 -29 -7 0 -4 -4 7 -9 14
-6 0 -9 -47 -9 -48 -1 -71 3 -82 15 -29 28 -19 -11 11 -45 24 -27 34 -31 76
-31 44 0 47 -1 37 -20 -8 -15 -8 -18 3 -15 10 5 10 -24 -3 -149 -8 -85 -18
-158 -22 -162 -4 -4 -25 -10 -45 -14 l-38 -8 41 -1 c41 -1 41 -2 47 -42 3 -22
3 -109 0 -194 -5 -140 -4 -160 16 -222 12 -37 31 -79 42 -93 16 -20 15 -15 -5
27 -14 29 -30 83 -35 120 -12 83 1 339 18 356 8 8 11 4 12 -18 0 -17 3 -23 6
-15 2 8 7 22 10 30 14 38 10 50 -18 50 -25 0 -27 3 -24 32 3 18 9 78 16 132
16 142 28 161 23 36 -3 -58 -6 -122 -9 -144 -2 -21 0 -35 4 -30 5 5 13 65 20
134 6 69 16 158 22 197 11 67 14 74 46 94 19 12 53 45 75 73 49 63 81 83 133
87 24 2 48 11 60 24 11 11 29 27 40 35 17 12 16 10 -2 -11 -30 -33 -51 -95
-68 -204 -20 -123 -19 -201 4 -252 25 -53 89 -117 135 -134 30 -11 36 -18 36
-42 0 -21 4 -28 14 -24 16 7 21 -33 25 -208 4 -174 11 -135 11 59 l0 176 25
-4 c20 -4 28 0 35 20 6 16 17 24 33 24 27 0 62 35 106 104 17 28 31 43 31 34
0 -22 21 -28 92 -28 l61 0 -6 -90 -7 -90 65 0 65 0 0 79 c0 76 1 79 26 85 14
4 40 4 58 1 l33 -7 6 69 c4 37 7 85 7 105 l0 37 -67 3 -68 3 -3 92 -3 93 -32
0 c-18 0 -42 3 -54 6 -23 6 -23 5 -23 -90 l0 -96 -65 0 c-55 0 -65 3 -65 18 0
9 7 26 15 36 21 28 19 49 -15 145 -35 99 -55 124 -130 160 -52 25 -55 29 -57
66 -2 22 -15 123 -29 225 -39 274 -105 515 -187 677 -39 76 -159 251 -216 315
l-51 57 42 5 c24 3 102 13 173 21 231 28 291 45 314 86 16 29 24 -4 -101 414
-17 55 -37 107 -45 115 -16 17 -134 18 -243 1 -36 -6 -110 -12 -165 -13 l-99
-3 -16 30 c-14 28 -15 17 -18 -175 -2 -159 1 -224 14 -292 24 -126 17 -223
-20 -276 -50 -73 -172 -115 -222 -77 -17 13 -13 14 47 15 53 0 72 4 90 21 13
11 19 18 12 15 -6 -4 -13 -1 -15 4 -2 6 -20 12 -41 14 -20 2 -43 9 -50 15 -19
15 -121 40 -189 46 -84 7 -105 14 -112 38 -9 33 -9 32 34 82 22 25 40 50 40
55 0 5 3 15 6 24 5 12 0 16 -17 15 -48 -3 -149 53 -149 82 0 9 -6 19 -14 22
-9 4 -19 35 -27 82 -8 44 -16 70 -20 62 -6 -9 -22 -12 -51 -10 -24 2 -47 4
-53 3 -57 -3 -82 -6 -92 -13 -6 -4 -13 -2 -15 4 -2 6 -24 13 -48 16 -25 3 -55
11 -67 19 -12 8 -26 14 -30 14 -4 0 -1 -5 7 -10 14 -9 7 -12 -16 -9 -4 0 -11
-5 -15 -13 -7 -10 -9 -8 -9 6 0 13 -5 17 -20 13 -13 -3 -20 0 -20 10 0 10 -6
13 -16 9 -10 -4 -13 -2 -8 6 4 6 -4 20 -18 32 -13 12 -39 42 -57 68 -18 25
-43 49 -55 52 -11 3 -30 18 -40 32 -15 22 -17 30 -7 45 14 23 3 24 -27 3 -50
-35 -59 -84 -37 -197 8 -40 -12 -25 -36 27 -23 50 -24 82 -4 120 9 16 14 30
12 32 -8 8 -49 -30 -59 -55 -15 -39 -24 -182 -14 -231 10 -50 23 -83 57 -147
22 -40 39 -82 39 -95 0 -13 18 -52 40 -87 41 -67 41 -79 -1 -102 -20 -10 -83
-21 -116 -20 -12 0 -24 -3 -27 -8 -7 -10 -63 -6 -95 6 -14 5 -42 6 -65 2 -22
-4 -46 -4 -54 -1 -9 3 -13 1 -9 -5 4 -7 -4 -10 -23 -9 -20 0 -30 7 -34 21 -5
20 -1 103 8 160 12 77 18 169 11 162 -5 -4 -9 -15 -10 -25 -1 -9 -5 -24 -8
-32 -33 -90 -39 -262 -11 -311 33 -56 91 -84 167 -80 41 2 33 -5 -25 -24 -69
-23 -74 -28 -41 -46 16 -8 35 -20 43 -28 8 -8 42 -27 75 -42 55 -24 74 -30
145 -43 14 -3 57 -14 95 -26 218 -65 491 -88 623 -53 31 9 64 17 72 17 9 1 21
6 28 10 14 8 30 0 20 -10 -14 -13 -191 -66 -286 -85 -91 -19 -112 -20 -182
-10 -90 14 -173 39 -240 75 -25 13 -97 43 -160 66 -63 23 -159 64 -213 92
-104 53 -150 97 -167 158 -18 65 -11 218 16 345 13 66 29 144 35 174 6 29 24
96 41 150 38 124 40 172 4 142 -10 -9 -16 -9 -21 -1 -11 17 21 46 65 59 41 12
56 29 108 123 27 48 32 68 32 123 0 47 -3 64 -11 59 -7 -4 -10 -3 -8 2 7 15
36 97 47 131 8 27 7 37 -9 56 -11 15 -16 34 -13 51 6 37 -12 66 -42 66 -21 0
-24 4 -19 20 4 11 2 20 -4 20 -19 0 57 96 115 146 54 45 57 47 70 29 8 -10 14
-25 14 -33 0 -7 5 -10 10 -7 6 3 13 -2 16 -12 3 -10 12 -31 19 -48 33 -70 56
-247 34 -261 -5 -3 -7 -9 -5 -13 4 -6 1 -23 -18 -101 -8 -32 -44 -119 -54
-131 -6 -8 -31 -38 -56 -66 -42 -49 -68 -83 -166 -218 -32 -44 -49 -89 -66
-175 -3 -14 4 -4 14 21 26 64 107 182 153 224 21 19 56 44 79 55 23 12 38 25
34 31 -3 6 18 36 48 67 124 129 176 219 184 323 3 41 6 81 5 89 -1 8 -1 23 -2
33 0 9 -4 17 -10 17 -5 0 -9 13 -9 29 0 38 -10 62 -22 55 -5 -3 -8 0 -6 7 3
17 -29 69 -54 87 -10 7 -16 18 -13 23 3 5 -1 6 -9 3 -9 -3 -16 -2 -16 4 0 5
-11 8 -25 7 -15 -2 -25 2 -25 9 0 13 -52 76 -63 76 -4 0 -2 -12 3 -27 9 -25 9
-26 -4 -10 -8 10 -19 53 -25 96 -16 106 -55 251 -85 308 -63 125 -179 179
-294 139 l-40 -14 8 28 c9 31 40 79 52 80 4 0 12 9 18 20 9 17 8 19 -7 13 -25
-10 17 42 59 74 25 18 28 23 13 23 -17 0 -16 3 7 28 26 28 59 130 56 173 -1
13 2 38 6 56 4 19 3 34 -3 38 -6 3 -11 15 -11 26 0 16 -7 19 -42 18 -24 0 -51
-4 -62 -8 -17 -7 -17 -10 10 -42 58 -67 57 -65 39 -98 -17 -33 -35 -41 -35
-16 0 13 -4 14 -20 5 -11 -6 -20 -7 -20 -3 0 4 -5 2 -12 -5 -26 -26 -185 -6
-275 34 -122 53 -168 116 -172 236 -1 12 -6 15 -18 11 -12 -5 -15 -2 -10 10 3
9 2 19 -3 22 -5 3 -7 11 -5 18 2 7 6 29 9 49 5 32 21 79 51 151 12 28 -11 20
-40 -14z m-749 -904 c-9 -14 -13 -25 -9 -24 4 1 17 1 28 0 14 -1 16 -4 8 -12
-14 -14 6 -39 31 -39 9 0 16 -5 16 -11 0 -5 4 -8 9 -5 4 3 18 -2 29 -12 11 -9
29 -23 40 -31 12 -8 23 -25 27 -38 5 -20 10 -23 28 -17 12 4 33 8 47 8 20 1
24 -3 22 -19 -2 -10 -11 -25 -20 -32 -11 -8 -12 -12 -5 -13 7 0 12 -3 12 -7
-1 -5 -1 -19 0 -32 1 -20 5 -22 29 -16 15 3 28 10 30 14 1 5 13 6 25 4 25 -5
51 -38 42 -53 -8 -13 -74 -2 -122 20 -24 11 -48 20 -53 20 -16 0 -101 48 -126
71 -11 10 -25 19 -32 19 -6 0 -16 8 -21 19 -6 10 -22 22 -36 25 -14 4 -25 10
-25 15 0 5 -13 14 -30 21 -16 7 -30 16 -30 21 0 4 -8 10 -18 14 -11 3 -24 16
-30 30 -10 21 -8 26 8 35 10 5 32 11 48 13 15 2 39 11 52 20 35 24 45 21 26
-8z m1089 -101 c-14 -32 -25 -69 -25 -80 0 -12 -6 -26 -13 -32 -11 -9 -13 -2
-10 36 4 57 21 102 39 102 7 0 16 9 19 21 4 11 9 19 11 17 2 -2 -8 -31 -21
-64z m45 -132 c0 -5 -11 -14 -24 -20 -13 -6 -40 -25 -59 -42 -30 -26 -35 -28
-32 -12 7 39 30 62 70 71 22 5 41 9 43 10 1 1 2 -3 2 -7z m140 -144 c11 -12
17 -24 14 -27 -3 -3 -9 1 -13 8 -6 9 -11 10 -15 2 -4 -6 -18 -11 -32 -11 -18
0 -24 5 -22 18 6 37 38 42 68 10z m-166 -153 c22 -34 56 -40 150 -28 85 10
120 4 142 -25 25 -32 17 -46 -13 -26 -22 15 -53 20 -138 24 -89 4 -115 9 -137
25 -39 29 -61 79 -52 118 l7 32 13 -48 c6 -26 19 -59 28 -72z m2274 -1334 c11
-32 7 -41 -19 -41 -10 0 -19 10 -21 25 -6 29 0 32 18 8 12 -16 13 -15 4 10 -5
15 -6 27 -1 27 5 0 14 -13 19 -29z m52 -1 c0 -23 -10 -26 -28 -8 -18 18 -15
28 8 28 13 0 20 -7 20 -20z m-371 -16 c-11 -14 -11 -18 4 -29 21 -15 22 -25 2
-25 -18 0 -37 34 -29 54 3 9 13 16 21 16 13 0 13 -3 2 -16z m52 -34 c6 0 8 4
4 9 -3 5 -1 12 4 15 5 3 11 -1 15 -9 6 -16 -2 -45 -12 -45 -13 0 -42 34 -42
50 0 28 15 33 18 6 2 -14 8 -26 13 -26z m49 21 c0 -11 7 -26 15 -35 20 -20 19
-24 -7 -23 -20 0 -23 5 -23 38 -1 22 3 39 7 39 4 0 8 -9 8 -19z m75 -1 c0 -8
4 -20 8 -26 5 -9 -3 -10 -29 -4 -45 10 -50 16 -34 35 16 19 55 16 55 -5z m43
13 c-10 -2 -15 -10 -11 -19 3 -8 0 -14 -6 -14 -6 0 -11 9 -11 20 0 14 6 20 23
19 16 -1 17 -3 5 -6z m-1417 -41 c-21 -40 -71 -72 -111 -72 -39 0 -90 17 -90
30 0 9 51 20 90 20 15 0 47 11 71 24 50 26 55 26 40 -2z m459 -407 c74 -9 140
-27 140 -40 0 -5 5 -3 10 5 8 13 10 13 10 -2 0 -15 9 -17 70 -14 80 4 81 -1
14 -68 -49 -49 -71 -59 -184 -86 -120 -28 -269 -35 -480 -21 -215 14 -309 44
-308 100 1 27 3 29 25 20 14 -5 28 -7 33 -4 4 3 10 -1 13 -9 6 -15 57 -28 57
-15 0 5 -4 9 -10 9 -5 0 -10 5 -10 11 0 6 7 9 14 6 10 -4 13 -1 9 9 -3 9 1 14
12 14 9 0 14 -4 11 -8 -4 -7 19 -8 60 -3 6 0 9 12 6 26 -3 20 -1 24 11 19 9
-3 26 0 39 7 13 7 26 13 30 14 3 0 10 3 14 7 4 4 18 5 31 2 13 -4 29 -1 37 5
7 6 27 11 42 11 36 0 198 11 202 15 1 1 13 1 25 -1 12 -2 47 -6 77 -9z m903
-190 c65 -118 111 -252 142 -405 13 -63 30 -142 39 -175 20 -75 27 -243 14
-308 -19 -91 -89 -142 -178 -130 -63 9 -56 20 9 15 37 -3 61 0 65 7 5 7 -7 11
-36 11 -24 0 -79 9 -123 18 l-80 18 0 215 c0 179 -4 234 -23 338 -22 116 -22
128 -8 185 24 97 29 177 16 240 -10 51 -10 64 5 95 l16 38 63 -66 c35 -36 70
-79 79 -96z m-516 51 c-51 -45 -185 -127 -213 -130 -9 0 -19 5 -21 12 -3 6 0
12 7 12 23 0 121 52 186 100 84 61 106 64 41 6z m193 -65 c-4 -22 -3 -44 1
-48 5 -5 3 -17 -4 -27 -11 -16 -15 -16 -42 -2 -16 8 -32 13 -37 10 -17 -11 -7
22 15 47 17 20 66 59 73 59 1 0 -2 -18 -6 -39z m-120 -70 c0 -5 -7 -12 -16
-15 -14 -5 -15 -4 -4 9 14 17 20 19 20 6z m16 -55 c-6 -31 -16 -41 -89 -84
-123 -74 -287 -153 -287 -138 0 5 169 105 257 151 48 26 74 46 77 61 7 25 35
58 43 50 3 -3 2 -21 -1 -40z m-66 10 c0 -2 -8 -10 -17 -17 -16 -13 -17 -12 -4
4 13 16 21 21 21 13z m184 -82 c-9 -22 -18 -47 -19 -56 -3 -31 -16 -34 -36 -9
-27 33 -24 49 18 87 45 41 61 31 37 -22z m-1170 -41 c9 -22 -8 -14 -28 13 -18
25 -18 25 3 12 11 -7 23 -18 25 -25z m31 -23 c3 -5 1 -10 -4 -10 -6 0 -11 5
-11 10 0 6 2 10 4 10 3 0 8 -4 11 -10z m-410 -31 c11 -17 -1 -21 -15 -4 -8 9
-8 15 -2 15 6 0 14 -5 17 -11z m-780 -104 l0 -50 -100 -1 c-55 0 -116 -4 -135
-9 l-35 -7 30 32 c17 18 50 46 75 62 39 25 53 28 105 26 l60 -3 0 -50z m2834
-72 c1 -13 -3 -23 -9 -23 -15 0 -28 84 -20 130 3 17 28 -74 29 -107z m-731
-73 c-17 -30 -48 -77 -68 -105 -23 -30 -47 -80 -60 -125 -26 -85 -50 -140 -63
-140 -5 0 -7 7 -3 15 11 29 -2 15 -30 -32 -15 -27 -45 -70 -66 -97 -22 -27
-61 -93 -87 -147 -26 -53 -54 -104 -62 -111 -8 -8 -25 -30 -39 -48 -14 -18
-37 -48 -52 -67 -15 -19 -24 -41 -21 -49 3 -8 0 -14 -6 -14 -6 0 -11 -5 -11
-12 0 -18 -42 -58 -61 -58 -19 0 -45 66 -105 270 -51 173 -55 199 -38 232 8
15 14 34 14 42 0 23 131 289 149 303 9 7 54 25 101 39 47 14 135 45 195 69
160 64 328 114 337 101 4 -6 -7 -35 -24 -66z m885 -405 c4 -61 3 -67 -9 -50
-9 12 -14 43 -14 84 1 84 16 61 23 -34z m-415 -41 c38 -29 40 -53 10 -102 -12
-20 -16 -32 -10 -28 21 13 13 -9 -19 -53 -17 -23 -37 -40 -44 -37 -7 2 -18 -1
-24 -7 -13 -13 -15 119 -4 211 6 51 7 53 32 47 14 -4 41 -18 59 -31z m-2601
-171 c-3 -10 -5 -4 -5 12 0 17 2 24 5 18 2 -7 2 -21 0 -30z m3222 -33 c0 -10
-3 -8 -9 5 -12 27 -12 43 0 25 5 -8 9 -22 9 -30z m-3195 -25 c3 -9 32 -27 63
-41 105 -45 121 -56 134 -86 6 -16 9 -32 5 -35 -3 -4 -33 -5 -65 -4 -50 2 -62
-1 -80 -20 -12 -13 -21 -30 -21 -40 0 -9 -9 -19 -20 -22 -11 -3 -28 -23 -39
-46 l-18 -41 -6 82 c-11 139 -9 195 8 202 9 3 15 18 15 36 0 32 14 40 24 15z
m3095 -39 c36 -58 24 -215 -19 -262 -19 -19 -33 -24 -76 -24 -64 0 -145 16
-170 34 -14 11 -17 28 -17 90 1 80 18 165 37 179 6 4 20 5 31 3 11 -3 47 -1
80 2 115 13 112 14 134 -22z m81 -160 c-14 -70 -29 -103 -60 -131 -20 -18 -20
-16 3 18 30 45 31 48 48 147 8 44 15 65 17 51 2 -14 -1 -52 -8 -85z m-2933
-42 c45 -29 67 -62 78 -113 5 -23 4 -31 -4 -27 -6 4 -11 15 -11 25 0 24 -53
97 -82 113 -13 7 -45 15 -73 19 l-50 6 50 2 c40 1 60 -5 92 -25z m-27 -120 c0
-23 -7 -16 -29 29 l-20 42 24 -28 c14 -15 25 -35 25 -43z m2788 -11 c-10 -2
-26 -2 -35 0 -10 3 -2 5 17 5 19 0 27 -2 18 -5z m-3183 -308 c3 -25 2 -53 -4
-62 -8 -16 -11 -15 -21 12 -17 43 -24 91 -16 112 7 17 8 17 21 0 7 -10 16 -38
20 -62z"/>
<path d="M6110 6911 c0 -6 5 -13 10 -16 6 -3 10 1 10 9 0 9 -4 16 -10 16 -5 0
-10 -4 -10 -9z"/>
<path d="M4748 6353 c6 -2 18 -2 25 0 6 3 1 5 -13 5 -14 0 -19 -2 -12 -5z"/>
<path d="M4640 6335 c0 -7 15 -16 33 -20 58 -14 67 -13 67 8 0 16 -3 17 -15 7
-10 -9 -15 -9 -15 -1 0 6 -3 10 -7 10 -5 -1 -10 0 -13 1 -20 8 -50 5 -50 -5z"/>
<path d="M4900 6329 c-25 -3 -56 -11 -70 -17 -21 -9 -11 -11 58 -11 47 -1 82
-5 82 -11 0 -5 7 -10 16 -10 8 0 12 5 8 11 -4 8 -1 8 13 0 21 -11 27 -11 113
-12 64 -1 160 10 175 19 6 4 18 5 28 4 9 -2 17 1 17 6 0 20 -335 36 -440 21z"/>
<path d="M4757 6313 c-3 -5 6 -9 19 -9 13 -1 21 2 18 7 -6 11 -31 12 -37 2z"/>
<path d="M6429 4847 c5 -5 19 -7 32 -5 20 3 19 5 -9 9 -20 3 -29 2 -23 -4z"/>
<path d="M5065 9654 c-33 -8 -71 -17 -85 -20 -24 -6 -24 -6 13 -25 21 -11 35
-24 32 -30 -4 -5 -1 -8 6 -7 9 2 17 -18 24 -60 8 -53 12 -60 22 -45 11 17 13
16 32 -7 11 -14 32 -49 46 -79 57 -118 99 -151 194 -151 66 0 96 -18 86 -51
-4 -12 3 -31 18 -51 28 -36 36 -66 24 -85 -12 -19 31 -57 104 -93 84 -42 143
-91 174 -145 27 -46 52 -148 56 -229 2 -31 10 -58 23 -74 18 -23 15 -22 -21 7
-32 25 -55 35 -93 39 -54 5 -57 16 -7 32 32 10 31 10 -8 5 -22 -2 -51 -13 -65
-23 -53 -39 -113 -185 -130 -315 -10 -79 -16 -90 -36 -63 -30 42 -15 -15 24
-86 l37 -69 -25 -20 c-14 -10 -30 -23 -37 -29 -14 -12 -55 -144 -55 -177 -1
-46 45 -70 72 -38 7 8 23 15 36 15 48 0 114 55 98 81 -3 6 -3 21 0 34 7 27 61
61 71 45 3 -5 11 -7 18 -4 8 3 12 -12 13 -51 2 -65 14 -84 55 -83 41 1 54 25
70 128 11 73 14 80 19 50 5 -29 7 -21 14 42 8 81 1 154 -19 203 -7 17 -18 43
-24 60 l-13 30 -13 -32 c-20 -48 -55 -61 -178 -65 -59 -1 -107 0 -107 4 0 15
46 38 75 38 l30 0 -25 13 c-15 7 -26 23 -28 37 -2 22 -1 23 8 7 6 -10 29 -29
51 -42 34 -22 44 -24 80 -16 56 13 63 23 63 87 -1 41 -6 60 -23 78 -25 27 -27
38 -4 29 11 -4 14 -3 9 5 -4 7 -2 12 4 12 6 0 10 -8 8 -17 -2 -10 3 -17 10
-15 7 1 15 -11 18 -27 5 -24 13 -30 41 -36 19 -3 62 -20 94 -37 54 -27 68 -29
134 -26 41 2 75 0 75 -3 0 -4 7 -10 16 -13 12 -5 15 -2 10 11 -6 15 -4 14 14
-2 20 -19 21 -19 14 1 -5 13 4 8 28 -15 36 -35 68 -48 68 -28 0 6 11 0 26 -14
22 -21 24 -21 18 -4 -7 20 -7 20 14 1 16 -14 22 -15 22 -6 0 11 3 11 12 2 20
-20 28 -13 17 16 l-10 27 31 -30 c23 -22 33 -26 39 -17 4 7 15 10 25 6 10 -4
21 -2 26 5 6 10 15 9 41 -4 l34 -17 -22 21 c-31 30 -29 32 13 15 40 -17 54
-13 34 11 -16 19 -1 19 24 0 26 -20 42 -19 25 1 -12 15 -10 16 16 11 17 -4 46
-3 65 2 20 5 27 10 15 10 -18 1 -18 3 -3 11 9 6 25 9 35 8 32 -2 78 3 66 9
-20 7 -15 21 9 29 21 6 21 7 3 20 -17 13 -15 14 21 15 33 0 36 2 17 9 -13 5
-23 13 -23 17 0 11 49 33 72 33 10 0 18 5 18 11 0 6 7 8 16 5 11 -4 15 -2 11
8 -6 15 25 29 55 26 13 -1 17 5 15 22 -1 17 3 22 15 20 9 -1 19 6 23 18 8 25
21 26 34 3 9 -16 10 -16 11 5 0 25 31 60 48 54 7 -2 12 1 12 7 0 6 -4 11 -10
11 -16 0 -11 30 6 37 8 3 13 12 10 19 -3 9 2 14 14 14 13 0 18 5 14 15 -4 10
0 15 11 15 9 0 14 4 10 9 -3 6 4 15 15 21 11 6 19 15 17 20 -1 5 13 22 31 38
l33 28 -27 28 c-20 19 -22 25 -9 20 15 -6 13 0 -9 29 -16 20 -25 37 -21 37 5
0 0 9 -10 20 -10 11 -14 20 -9 20 5 0 -9 12 -31 26 -29 18 -33 23 -15 18 14
-3 31 -11 38 -16 8 -7 12 -7 12 0 0 15 -53 57 -91 71 -67 25 -77 32 -39 26 35
-5 35 -4 10 10 -14 8 -35 14 -47 15 -33 0 -57 11 -43 20 7 4 -3 10 -24 14 -32
6 -52 26 -26 26 6 0 10 4 10 8 0 5 -37 7 -82 5 -80 -4 -82 -3 -50 11 17 8 32
18 32 21 0 6 -50 1 -105 -11 -11 -2 -6 3 10 11 l30 14 -30 0 c-16 1 -64 -8
-105 -19 -91 -24 -99 -24 -74 -5 17 14 15 14 -20 0 -48 -19 -55 -19 -30 0 31
23 3 17 -46 -11 -38 -22 -42 -23 -26 -5 11 12 16 21 12 21 -9 0 -47 -22 -69
-39 -9 -8 -20 -11 -24 -8 -3 4 -28 -9 -56 -29 -27 -19 -46 -31 -42 -25 12 21
-15 11 -47 -18 -18 -16 -37 -29 -41 -29 -19 -2 -104 -83 -154 -147 -75 -95
-100 -110 -188 -110 -89 1 -175 37 -200 84 -9 18 -13 36 -10 41 3 6 1 10 -4
10 -6 0 -11 7 -11 15 0 16 18 21 103 29 82 7 235 60 280 97 57 47 88 108 88
172 0 54 -17 137 -27 137 -4 0 -4 -6 -1 -14 3 -8 0 -20 -8 -26 -10 -8 -14 -7
-18 7 -3 11 -5 6 -6 -12 -2 -30 -2 -30 -26 15 -13 25 -24 38 -25 30 -1 -32
-50 -118 -98 -171 -43 -48 -61 -59 -119 -78 -37 -12 -99 -24 -136 -26 -65 -4
-68 -4 -78 21 -5 15 -8 41 -7 58 2 41 -5 52 -50 75 -20 11 -48 31 -61 45 l-24
26 24 0 c23 0 22 1 -8 20 -41 24 -42 34 -4 28 43 -6 29 7 -29 28 -33 12 -49
23 -46 31 3 8 -2 13 -12 13 -15 0 -15 2 -2 10 12 8 10 10 -8 10 -13 0 -21 4
-18 9 4 5 0 12 -6 14 -9 4 -8 6 2 6 24 2 -82 50 -110 51 -20 0 -22 2 -10 10
11 7 6 10 -19 10 -33 0 -34 1 -15 16 20 17 16 17 -111 -1 l-40 -6 30 15 c37
18 27 18 -50 0z m1880 -933 c-2 -9 -4 -19 -4 -23 -1 -11 -46 -38 -71 -43 -23
-4 -42 8 -52 37 -7 18 5 26 61 34 20 3 37 7 39 8 9 10 29 0 27 -13z m-198 3
c-3 -3 -12 -4 -19 -1 -8 3 -5 6 6 6 11 1 17 -2 13 -5z m33 2 c0 -3 -4 -8 -10
-11 -5 -3 -10 -1 -10 4 0 6 5 11 10 11 6 0 10 -2 10 -4z m-120 -176 c0 -4 -7
-11 -16 -14 -23 -9 -74 -7 -74 2 0 4 17 7 38 5 20 -1 28 0 17 3 -36 10 -36 20
0 16 19 -2 35 -8 35 -12z m130 0 c0 -12 -28 -25 -36 -17 -9 9 6 27 22 27 8 0
14 -5 14 -10z m-178 -76 c15 3 28 4 28 2 0 -8 -91 -46 -109 -46 -24 0 -52 31
-33 37 6 3 10 9 6 14 -14 24 10 29 44 9 24 -15 45 -20 64 -16z m-886 -53 c-11
-16 -56 -14 -56 4 0 22 32 36 49 20 7 -7 10 -18 7 -24z m313 -62 c3 5 20 -2
36 -15 l30 -24 -50 0 c-49 0 -109 22 -150 53 -16 13 -7 12 54 -4 42 -11 77
-15 80 -10z m-329 -179 c0 -5 -12 -7 -27 -6 -16 2 -36 4 -45 5 -10 0 -18 4
-18 9 0 4 20 6 45 4 25 -2 45 -8 45 -12z"/>
<path d="M6088 9532 c29 -35 52 -68 52 -74 0 -6 3 -9 6 -6 7 7 -19 55 -44 83
-49 54 -59 52 -14 -3z"/>
<path d="M4496 9563 c-4 -4 -23 -6 -43 -5 -28 2 -34 0 -30 -12 3 -8 1 -17 -6
-20 -7 -2 1 -5 17 -5 25 -1 96 33 96 45 0 7 -26 5 -34 -3z"/>
<path d="M4575 9553 c-78 -19 -93 -34 -29 -29 56 4 104 21 104 36 0 12 2 12
-75 -7z"/>
<path d="M6043 9465 c0 -22 2 -30 4 -17 2 12 2 30 0 40 -3 9 -5 -1 -4 -23z"/>
<path d="M4620 9430 c8 -5 31 -9 50 -9 32 1 33 2 10 9 -14 4 -36 8 -50 9 -20
1 -22 -1 -10 -9z"/>
<path d="M6017 9387 l-18 -32 21 21 c13 12 21 27 19 33 -2 6 -12 -4 -22 -22z"/>
<path d="M6172 9179 c-7 -10 -40 -40 -75 -65 -78 -57 -83 -63 -30 -34 43 24
131 106 122 114 -3 3 -10 -4 -17 -15z"/>
<path d="M5766 8566 c10 -8 21 -12 24 -10 5 6 -21 24 -34 24 -6 0 -1 -6 10
-14z"/>
<path d="M5476 8457 c-28 -60 -46 -147 -39 -193 7 -56 20 -57 21 -1 0 23 8 67
17 97 36 123 37 171 1 97z"/>
<path d="M5170 7368 c-36 -4 -80 -9 -97 -11 -36 -4 -57 -17 -27 -17 32 0 188
21 193 26 9 9 -7 10 -69 2z"/>
<path d="M5496 7306 c3 -8 0 -17 -5 -21 -6 -3 -9 -10 -6 -15 9 -15 -44 -68
-90 -90 -44 -21 -97 -70 -63 -57 15 5 15 3 -2 -26 -14 -22 -20 -50 -20 -90 0
-49 4 -62 25 -83 24 -24 30 -25 110 -21 46 3 89 8 95 12 6 3 20 25 31 47 16
32 20 51 15 82 -4 23 -6 67 -6 99 1 78 -14 120 -55 152 -19 14 -32 19 -29 11z
m74 -127 c0 -34 -22 -80 -34 -69 -3 3 0 33 7 67 12 65 27 66 27 2z"/>
<path d="M4143 7245 c0 -8 4 -15 9 -15 4 0 8 4 8 9 0 6 -4 12 -8 15 -5 3 -9
-1 -9 -9z"/>
<path d="M5075 7060 c-3 -5 -1 -10 4 -10 6 0 11 5 11 10 0 6 -2 10 -4 10 -3 0
-8 -4 -11 -10z"/>
<path d="M2742 5255 c-1 -123 6 -176 38 -290 6 -22 16 -62 22 -90 13 -60 8
-52 40 -60 l28 -7 -24 43 c-19 38 -29 64 -42 114 -31 123 -48 221 -54 310 l-7
110 -1 -130z"/>
<path d="M3063 5320 c0 -25 2 -35 4 -22 2 12 2 32 0 45 -2 12 -4 2 -4 -23z"/>
<path d="M3041 5119 c-17 -110 -63 -241 -108 -308 -21 -31 -36 -59 -35 -63 1
-5 -17 -21 -40 -38 -42 -31 -44 -39 -5 -18 20 10 21 10 8 -6 -9 -11 -11 -20
-5 -24 5 -4 9 -14 9 -22 0 -8 2 -17 6 -20 4 -3 9 -18 12 -35 3 -16 10 -42 15
-56 6 -15 8 -29 5 -32 -3 -3 -1 -12 3 -19 11 -17 13 -78 3 -78 -4 0 -10 14
-14 30 -4 17 -11 30 -15 30 -5 0 -7 6 -4 13 2 7 -1 21 -9 30 -12 17 -13 17
-14 -2 -1 -12 3 -21 8 -21 6 0 7 -4 4 -10 -3 -5 1 -35 9 -67 19 -74 26 -107
32 -162 2 -24 7 -49 11 -55 3 -6 0 -5 -8 2 -16 14 -39 16 -39 2 0 -5 6 -10 13
-10 7 0 13 -9 13 -19 0 -11 -4 -17 -8 -15 -4 3 -8 -6 -8 -20 0 -13 -5 -26 -11
-28 -6 -2 9 -26 34 -53 40 -45 93 -135 80 -135 -12 0 -104 73 -125 99 -25 30
-198 127 -198 111 0 -5 16 -27 35 -49 19 -21 35 -44 35 -50 0 -7 11 -27 25
-45 14 -18 22 -36 17 -41 -4 -5 -1 -5 6 -1 9 5 15 1 18 -11 3 -11 32 -43 65
-72 32 -29 59 -59 59 -66 0 -14 -24 -21 -99 -30 -48 -6 -61 -11 -61 -26 0 -9
10 -14 75 -38 23 -9 30 -18 32 -41 2 -22 -2 -30 -14 -30 -12 0 -13 -3 -4 -14
14 -17 162 -91 174 -88 5 2 7 -3 5 -10 -3 -7 -14 -14 -26 -16 -12 -2 -22 -10
-22 -18 0 -9 5 -12 13 -8 6 3 0 -4 -14 -17 -38 -35 -49 -62 -42 -103 6 -36 17
-47 26 -23 3 6 6 2 6 -10 1 -13 5 -23 11 -23 5 0 12 -11 16 -25 3 -14 11 -25
16 -25 6 0 8 -9 5 -19 -3 -12 1 -22 10 -25 8 -4 13 -13 10 -20 -3 -8 -2 -16 3
-18 24 -9 110 -184 125 -256 8 -35 16 -67 19 -70 10 -9 7 43 -14 243 -22 217
-25 300 -9 272 5 -9 8 -21 4 -26 -3 -5 -1 -12 4 -15 14 -9 -1 166 -19 229 -5
17 -14 71 -20 120 -13 107 -96 585 -110 635 -5 19 -17 89 -26 155 -8 66 -19
138 -24 160 -5 22 -11 70 -14 107 -5 59 -3 73 23 131 39 87 68 196 77 285 4
39 5 72 2 72 -2 0 -10 -37 -17 -81z"/>
<path d="M2788 4673 c7 -3 16 -2 19 1 4 3 -2 6 -13 5 -11 0 -14 -3 -6 -6z"/>
<path d="M7582 4395 c-12 -50 -36 -117 -52 -150 -60 -123 -200 -275 -252 -275
-19 0 -19 1 3 19 21 17 21 20 8 34 -10 10 -21 12 -30 6 -25 -16 -30 -10 -15
19 23 44 56 149 55 174 0 13 -9 -5 -19 -40 -22 -73 -51 -124 -85 -146 -33 -22
-35 -21 -35 14 0 30 -27 73 -41 64 -14 -8 -19 31 -9 66 14 49 12 121 -5 150
-14 24 -14 24 -16 -25 -10 -415 -10 -534 2 -556 5 -11 14 -140 19 -287 6 -147
14 -387 20 -535 l10 -267 -47 -58 c-25 -31 -48 -56 -50 -54 -2 2 -38 -22 -81
-51 -107 -76 -190 -120 -312 -166 -58 -21 -157 -62 -220 -90 -107 -46 -221
-80 -378 -111 -41 -8 -59 -16 -50 -21 7 -5 13 -12 13 -16 1 -4 4 -30 9 -56 9
-59 -15 -115 -75 -177 -22 -23 -42 -51 -44 -62 -5 -26 -25 -49 -39 -46 -24 4
-52 -14 -76 -49 -14 -21 -36 -50 -50 -64 -14 -15 -47 -70 -74 -124 -27 -54
-60 -108 -73 -121 -26 -26 -27 -32 -9 -56 21 -29 103 -57 191 -67 85 -10 360
-8 405 3 14 3 39 8 55 10 135 22 166 30 163 43 -3 13 -109 63 -134 63 -11 0
-24 43 -24 76 0 8 15 22 34 30 32 16 33 19 29 58 -3 22 -11 61 -18 86 -27 97
6 243 93 411 44 85 73 103 155 93 30 -4 53 -2 62 6 8 6 19 9 25 5 5 -3 10 -2
10 4 0 18 51 26 61 10 7 -12 10 -12 18 -1 6 11 10 10 15 -3 3 -10 12 -15 21
-12 20 8 27 -54 22 -200 -6 -127 6 -175 18 -78 5 33 17 70 31 91 13 19 24 39
24 44 0 17 21 22 37 8 12 -9 15 -9 9 -1 -5 9 2 12 26 10 36 -3 36 -4 43 -97 1
-25 -2 -57 -7 -73 -8 -20 -7 -31 2 -42 10 -12 10 -15 0 -15 -9 0 -7 -7 6 -21
10 -11 14 -20 9 -19 -23 5 -33 -1 -39 -24 -4 -18 -13 -23 -38 -24 -74 -3 -83
-4 -95 -14 -7 -5 -16 -7 -22 -4 -5 4 -24 -20 -42 -51 -36 -64 -50 -78 -61 -60
-15 25 -23 -8 -22 -93 1 -100 11 -87 -96 -123 -37 -13 -97 -25 -132 -27 -5 0
-8 -5 -8 -11 0 -6 9 -9 20 -6 11 3 20 1 20 -5 0 -6 7 -7 16 -4 8 3 12 2 9 -4
-3 -6 -2 -10 3 -10 13 0 22 -36 11 -47 -12 -12 23 -84 59 -119 27 -27 60 -42
112 -49 121 -18 176 -25 230 -30 118 -10 543 -8 610 4 114 19 262 82 252 106
-2 5 3 12 12 17 34 19 11 118 -43 188 -26 34 -36 90 -15 90 8 0 17 7 20 15 9
24 -25 110 -54 137 -37 33 -82 61 -82 49 0 -14 -23 -8 -58 18 -25 17 -36 20
-46 12 -7 -6 -20 -9 -29 -5 -10 3 -18 -2 -23 -18 l-7 -23 -9 24 c-6 18 -11 21
-21 12 -10 -8 -17 -7 -25 1 -9 9 -16 7 -30 -5 -17 -16 -18 -15 -14 20 3 22 1
33 -6 29 -6 -4 -11 21 -12 67 -3 77 -3 84 -1 252 1 129 0 145 -10 145 -4 0 -4
13 1 29 4 16 6 32 2 35 -3 3 0 6 7 6 13 0 7 72 -9 99 -9 16 5 47 33 71 20 17
22 37 12 92 -7 34 -5 38 19 49 33 15 33 20 -5 60 -23 24 -27 34 -17 40 7 5 9
9 4 9 -12 0 20 30 57 54 15 10 27 24 27 30 0 16 23 66 31 66 3 0 28 20 55 44
27 24 53 42 59 39 5 -4 7 -3 3 2 -7 7 35 53 169 187 32 32 53 58 47 58 -6 0
-59 -23 -118 -51 -180 -85 -616 -208 -526 -148 8 5 28 12 43 16 18 4 26 11 23
19 -3 8 -1 14 5 14 6 0 7 4 4 10 -4 6 10 8 35 6 37 -4 40 -3 23 10 -15 12 -15
13 -1 8 9 -3 26 0 38 6 13 7 20 8 17 3 -3 -5 4 -9 16 -10 12 0 16 1 10 4 -7 3
-13 10 -13 15 0 6 3 9 6 5 3 -3 23 1 44 8 21 7 41 11 44 8 3 -3 13 0 22 7 8 8
33 13 55 12 47 -3 85 25 76 57 -4 15 0 21 11 21 13 0 14 2 4 9 -11 7 -11 9 2
14 9 4 16 11 16 17 0 21 -83 3 -104 -22 -17 -20 -18 -20 -12 -3 6 17 3 16 -21
-6 -15 -15 -35 -27 -43 -27 -8 0 -25 -4 -37 -7 -15 -5 -23 -3 -23 5 0 10 -3
10 -15 0 -8 -7 -15 -8 -15 -3 0 6 -12 8 -26 5 -15 -3 -24 -1 -21 4 3 5 -7 10
-21 11 -25 1 -26 0 -7 -13 10 -8 14 -14 8 -14 -7 0 -18 7 -27 15 -8 9 -18 15
-21 15 -14 -3 -26 7 -30 25 -2 11 -4 22 -6 25 -1 3 -3 10 -4 15 -2 6 -4 12 -5
15 -1 3 -3 16 -6 30 -2 14 -7 39 -10 55 -3 17 -7 37 -8 45 -1 8 -10 41 -20 72
-9 32 -16 84 -15 115 2 53 6 61 42 98 21 22 40 38 43 35 2 -3 12 3 23 12 11 9
22 13 26 10 4 -4 11 1 16 11 6 9 15 17 20 17 6 0 16 6 24 13 7 6 25 21 40 32
23 16 132 156 173 220 25 41 34 72 38 137 2 36 8 78 14 93 5 14 10 37 10 51 0
13 4 24 9 24 14 0 20 37 8 49 -6 6 -14 32 -17 58 l-5 48 -23 -90z m-332 -434
c0 -5 -10 -11 -22 -14 -22 -6 -22 -6 -4 8 23 17 26 18 26 6z m-65 -970 c-3 -6
-11 -11 -16 -11 -5 0 -4 6 3 14 14 16 24 13 13 -3z m24 -787 c1 -28 8 -72 17
-98 14 -39 16 -74 11 -185 -6 -150 -16 -189 -59 -240 -52 -59 -60 -120 -22
-162 14 -16 14 -20 -1 -48 -9 -18 -21 -29 -27 -25 -5 4 -14 1 -18 -7 -13 -20
-47 28 -55 78 -6 42 -50 186 -65 212 -4 8 -1 29 6 47 8 18 16 57 20 86 7 67
36 158 74 228 16 30 46 91 67 134 33 69 38 76 44 55 4 -13 7 -47 8 -75z m-949
-494 c0 -13 -1 -13 -10 0 -5 8 -10 22 -10 30 0 13 1 13 10 0 5 -8 10 -22 10
-30z m-495 -100 c10 -15 -27 -70 -47 -70 -22 0 -23 12 -3 50 15 30 38 39 50
20z m-81 -156 c8 -22 8 -26 -4 -19 -5 3 -10 1 -10 -5 0 -6 -5 -8 -11 -4 -8 5
-8 9 1 14 7 4 9 13 6 19 -4 6 -3 11 2 11 6 0 13 -7 16 -16z m1836 -34 c0 -5
-4 -10 -9 -10 -6 0 -13 5 -16 10 -3 6 1 10 9 10 9 0 16 -4 16 -10z m10 -74 c0
-18 -15 -36 -31 -36 -21 0 -22 1 -13 24 5 14 44 24 44 12z m227 -118 c-3 -8
-6 -5 -6 6 -1 11 2 17 5 13 3 -3 4 -12 1 -19z"/>
<path d="M6462 4180 c0 -14 2 -19 5 -12 2 6 2 18 0 25 -3 6 -5 1 -5 -13z"/>
<path d="M6617 4107 c-20 -15 -53 -91 -61 -139 -8 -46 8 -63 72 -77 90 -19
217 -30 262 -21 l45 7 -59 2 c-69 1 -66 17 4 24 25 2 18 3 -15 0 -33 -2 -84
-5 -112 -7 -31 -3 -53 0 -53 6 0 5 -9 7 -20 3 -28 -9 -88 5 -94 22 -3 7 -2 12
3 9 4 -3 11 22 15 56 3 33 11 67 17 74 6 8 8 14 3 14 -5 0 -3 4 4 9 8 4 66 7
130 5 l117 -3 -95 9 c-52 5 -107 11 -121 14 -15 3 -33 0 -42 -7z"/>
<path d="M4391 4073 c18 -21 35 -40 37 -42 1 -2 2 0 2 5 0 12 -56 74 -66 74
-5 0 8 -17 27 -37z"/>
<path d="M6895 4095 c24 -8 164 -11 159 -3 -3 4 -42 8 -87 7 -45 0 -77 -2 -72
-4z"/>
<path d="M6436 4055 c-3 -9 -6 -24 -5 -33 0 -9 5 -4 10 12 9 32 6 48 -5 21z"/>
<path d="M7019 3993 c-13 -50 -18 -58 -49 -69 -34 -12 -35 -12 -7 -13 16 -1
26 -5 22 -11 -3 -6 1 -7 10 -4 8 4 18 18 21 33 3 14 10 45 16 69 6 23 9 45 6
47 -2 3 -11 -21 -19 -52z"/>
<path d="M6630 3995 c0 -19 -1 -38 -2 -42 -4 -12 155 -24 162 -13 3 5 16 7 29
3 17 -4 19 -8 9 -14 -8 -6 0 -9 25 -9 20 0 37 5 37 10 0 6 -6 10 -12 10 -8 0
-7 4 3 10 11 6 15 18 11 36 -3 18 -1 25 6 20 6 -4 9 -12 6 -19 -2 -7 5 -18 16
-25 19 -11 20 -10 20 28 0 39 -1 40 -34 40 -19 0 -38 -5 -42 -11 -3 -6 -16 -9
-28 -7 -23 5 -46 -12 -46 -34 0 -9 3 -9 10 2 8 13 10 12 10 -2 0 -12 -8 -18
-21 -18 -12 0 -18 -4 -13 -11 4 -7 1 -10 -7 -7 -7 2 -15 20 -17 39 -5 44 -6
45 -32 17 l-23 -23 6 26 c6 23 4 25 -33 27 -40 3 -40 2 -40 -33z m88 -42 c-10
-2 -28 -2 -40 0 -13 2 -5 4 17 4 22 1 32 -1 23 -4z"/>
<path d="M6400 3958 c-43 -68 -85 -92 -165 -96 -89 -5 -145 10 -191 51 -36 31
-107 48 -98 23 2 -6 -23 -26 -56 -43 -60 -33 -103 -42 -115 -23 -3 5 -13 6
-22 3 -12 -5 -14 -3 -8 7 6 10 4 12 -8 7 -10 -4 -17 -1 -17 6 0 8 -4 6 -10 -3
-8 -13 -10 -13 -10 0 0 11 -3 11 -12 2 -18 -18 -2 -28 68 -46 47 -12 73 -14
115 -6 68 12 177 8 206 -8 69 -38 222 -34 306 8 29 14 37 15 33 4 -4 -11 -2
-12 14 -1 21 13 36 44 26 54 -3 4 -17 1 -31 -5 -52 -24 -57 -15 -24 43 36 65
36 82 -1 23z m-310 -93 c14 -8 41 -15 60 -16 34 -2 34 -2 5 -6 -32 -5 -105 15
-105 29 0 11 11 10 40 -7z m197 -21 c-3 -3 -12 -4 -19 -1 -8 3 -5 6 6 6 11 1
17 -2 13 -5z"/>
<path d="M4738 3828 c7 -7 12 -25 12 -41 0 -16 4 -26 10 -22 23 14 4 75 -24
75 -6 0 -5 -5 2 -12z"/>
<path d="M6935 3754 c-41 -36 -40 -38 6 -15 24 12 57 51 42 51 -5 -1 -26 -17
-48 -36z"/>
<path d="M5925 3701 c19 -9 93 -15 84 -7 -2 2 -26 6 -54 10 -34 4 -43 3 -30
-3z"/>
<path d="M5881 3524 c0 -11 3 -14 6 -6 3 7 2 16 -1 19 -3 4 -6 -2 -5 -13z"/>
<path d="M8042 3331 c-28 -50 -28 -65 5 -152 l26 -71 31 56 c17 30 34 56 38
56 4 0 9 -10 11 -22 3 -13 4 -5 4 17 -2 33 -5 40 -22 38 -24 -2 -32 9 -46 65
-6 23 -15 44 -19 47 -4 2 -17 -13 -28 -34z"/>
<path d="M7420 3180 c-9 -6 -10 -10 -3 -10 6 0 15 5 18 10 8 12 4 12 -15 0z"/>
<path d="M4764 3109 c8 -47 0 -66 -35 -84 -36 -19 -76 -19 -112 0 -15 8 -25
10 -22 5 4 -6 1 -10 -4 -10 -17 0 24 -37 49 -45 33 -11 85 3 114 30 20 19 26
33 26 67 0 24 -5 50 -11 58 -8 11 -9 6 -5 -21z"/>
<path d="M8078 3053 c-12 -14 -16 -43 -17 -116 -1 -53 -4 -105 -7 -115 -5 -14
-4 -15 5 -2 6 8 11 49 11 90 0 41 5 82 10 90 8 12 10 11 10 -7 0 -13 5 -23 10
-23 6 0 10 -9 10 -20 0 -11 -4 -20 -9 -20 -5 0 -11 -17 -13 -39 l-3 -38 37 25
c21 13 38 27 38 29 0 3 -12 -2 -26 -12 -42 -28 -38 -10 6 25 29 23 40 38 37
51 -3 11 -1 22 4 25 5 3 9 10 9 17 0 6 -6 2 -14 -8 -8 -11 -12 -23 -10 -27 6
-9 -16 -52 -23 -45 -2 3 0 14 5 24 8 13 4 30 -11 63 -25 51 -37 58 -59 33z
m59 -85 c-3 -8 -6 -5 -6 6 -1 11 2 17 5 13 3 -3 4 -12 1 -19z"/>
<path d="M8202 3010 c0 -14 2 -19 5 -12 2 6 2 18 0 25 -3 6 -5 1 -5 -13z"/>
<path d="M8155 2883 c-39 -20 -85 -63 -85 -80 0 -15 16 -17 25 -3 4 6 9 9 13
7 4 -2 30 19 57 45 50 48 46 61 -10 31z"/>
<path d="M5853 2790 c0 -47 2 -66 4 -42 2 23 2 61 0 85 -2 23 -4 4 -4 -43z"/>
<path d="M8131 2787 c-13 -21 -12 -21 5 -5 10 10 16 20 13 22 -3 3 -11 -5 -18
-17z"/>
<path d="M8090 2778 c-12 -22 -12 -22 6 -6 10 10 15 20 12 24 -4 3 -12 -5 -18
-18z"/>
<path d="M8095 2720 c-4 -12 -5 -24 -2 -27 3 -2 8 5 12 17 4 12 5 24 2 27 -3
2 -8 -5 -12 -17z"/>
<path d="M5842 2563 c-2 -71 -1 -73 28 -88 42 -22 51 -19 13 5 -30 18 -32 23
-36 87 l-3 68 -2 -72z"/>
<path d="M6040 2420 c0 -5 10 -10 23 -10 18 0 19 2 7 10 -19 13 -30 13 -30 0z"/>
<path d="M3313 2387 c3 -10 82 -48 229 -112 15 -6 24 -20 26 -38 4 -29 73
-145 95 -159 7 -4 13 -13 13 -20 1 -7 2 -19 3 -25 0 -7 6 -13 12 -13 8 0 8 5
-1 15 -7 9 -8 15 -2 15 15 0 22 -26 10 -38 -12 -12 15 -58 43 -73 11 -5 19
-16 19 -24 0 -9 6 -12 15 -9 10 4 15 0 15 -11 0 -9 4 -14 9 -10 6 3 19 -4 30
-16 12 -14 26 -19 37 -15 22 8 43 -10 37 -33 -4 -15 0 -18 19 -14 22 4 24 2
20 -31 -2 -20 -8 -34 -12 -31 -5 3 -15 -2 -22 -10 -7 -9 -28 -30 -46 -48 -19
-18 -39 -41 -45 -52 -9 -18 -9 -19 8 -5 15 13 18 13 13 1 -2 -8 -18 -22 -35
-30 -34 -17 -47 -43 -30 -60 7 -7 7 -11 1 -11 -6 0 -11 -6 -11 -12 0 -7 -2
-17 -4 -23 -2 -5 1 -12 6 -13 6 -2 15 -8 22 -14 15 -12 33 -2 33 18 0 8 4 14
8 14 12 0 31 59 21 66 -5 3 -7 10 -3 15 3 5 2 9 -3 8 -21 -4 -21 3 -1 24 24
23 73 52 63 37 -7 -11 54 -29 73 -22 6 2 12 8 12 13 0 5 5 9 10 9 6 0 10 -9
10 -21 0 -11 4 -18 9 -15 4 3 13 -13 20 -34 6 -22 15 -40 19 -40 9 0 38 148
51 260 5 41 16 113 25 160 25 141 26 135 -14 138 -73 5 -159 25 -285 67 -140
47 -265 101 -265 115 0 11 -78 55 -127 71 -21 7 -54 19 -73 27 -47 21 -62 23
-57 9z m567 -511 c0 -11 -19 -15 -25 -6 -3 5 1 10 9 10 9 0 16 -2 16 -4z"/>
<path d="M4636 2032 c-6 -5 61 -196 83 -242 27 -53 71 -187 71 -213 0 -10 9
-55 20 -99 23 -88 25 -201 5 -233 -18 -29 -34 -112 -24 -122 5 -5 -7 -39 -26
-76 -40 -77 -42 -92 -18 -105 14 -9 9 -19 -43 -78 -32 -38 -63 -74 -69 -82 -5
-7 -15 -19 -22 -26 -22 -24 -68 -110 -87 -158 -14 -39 -17 -105 -4 -111 2 -1
14 -8 27 -16 28 -15 187 -72 216 -76 11 -2 47 -9 80 -15 40 -8 124 -10 250 -7
155 4 204 9 264 26 132 39 195 85 173 128 -5 10 -27 70 -48 133 -21 63 -53
148 -71 189 -22 47 -33 87 -31 107 2 28 -7 43 -65 105 -37 40 -67 77 -67 81 0
5 -12 5 -27 2 -15 -4 -34 -7 -41 -7 -7 0 -11 -6 -8 -13 3 -8 0 -11 -10 -7 -7
3 -14 1 -14 -5 0 -5 -11 -7 -25 -4 -16 3 -25 0 -25 -8 0 -9 -7 -7 -20 5 -19
17 -20 17 -21 -1 0 -16 -2 -15 -10 5 -9 23 -10 23 -29 6 -11 -10 -20 -15 -20
-11 0 4 -9 2 -20 -4 -15 -8 -20 -8 -20 2 -1 7 -7 2 -15 -12 l-13 -25 -4 35
c-2 23 -8 34 -16 32 -9 -2 -12 6 -10 22 1 13 -5 32 -14 43 -17 19 -35 128 -19
118 6 -3 8 10 5 30 -2 19 0 35 4 35 9 0 8 52 -1 80 -14 47 -23 100 -16 100 9
0 4 33 -7 52 -4 7 -3 8 4 4 7 -4 12 -1 12 8 0 9 4 16 9 16 5 0 13 9 16 20 3
11 14 20 23 20 9 0 25 7 35 15 18 13 18 14 -2 34 -12 12 -21 19 -21 16 0 -3
-11 5 -25 19 -25 25 -34 56 -16 56 6 0 9 14 8 32 -2 31 -2 32 83 55 93 25 203
31 226 12 8 -7 14 -31 15 -63 0 -28 4 -60 8 -71 6 -16 10 -10 19 30 14 59 32
208 27 214 -5 4 -635 8 -639 3z m545 -1225 c-10 -9 -11 -8 -5 6 3 10 9 15 12
12 3 -3 0 -11 -7 -18z m80 -83 c9 -11 8 -19 -6 -34 -10 -11 -21 -17 -25 -15
-5 3 -10 0 -12 -6 -3 -9 -9 -9 -26 0 -27 15 -28 24 -1 55 22 25 49 25 70 0z"/>
<path d="M6920 1896 c0 -2 7 -9 15 -16 9 -7 15 -8 15 -2 0 5 -7 12 -15 16 -8
3 -15 4 -15 2z"/>
<path d="M6760 1800 c0 -5 5 -10 11 -10 5 0 7 5 4 10 -3 6 -8 10 -11 10 -2 0
-4 -4 -4 -10z"/>
<path d="M3840 1725 c-11 -13 -10 -14 4 -9 9 3 16 10 16 15 0 13 -6 11 -20 -6z"/>
<path d="M3710 1405 c-14 -7 -34 -11 -46 -9 -16 4 -31 -6 -64 -43 -23 -26 -47
-59 -54 -73 -6 -14 -26 -40 -44 -58 -33 -33 -95 -154 -122 -239 -7 -24 -18
-43 -23 -43 -6 0 -8 -3 -4 -6 3 -3 -3 -16 -14 -27 -15 -16 -18 -29 -13 -52 11
-53 29 -65 154 -103 32 -10 147 -28 239 -37 41 -4 332 38 375 55 57 21 86 49
86 83 0 24 -3 28 -10 17 -7 -10 -8 -4 -4 20 3 22 -3 59 -15 99 -25 75 -26 99
-8 135 16 29 9 81 -20 161 -14 38 -19 45 -21 27 -3 -22 -34 -47 -45 -36 -3 3
-14 1 -26 -5 -13 -8 -22 -8 -26 -1 -4 6 -10 8 -15 5 -5 -3 -13 3 -19 12 -5 10
-13 15 -17 11 -4 -4 -13 0 -20 10 -7 9 -14 12 -14 6 0 -6 -10 -10 -22 -9 -13
1 -29 -2 -35 -8 -10 -7 -13 -2 -13 21 0 21 -6 31 -20 35 -11 3 -24 16 -29 29
-6 12 -10 19 -11 13 0 -5 -5 -3 -10 5 -8 13 -14 13 -42 -3 l-33 -19 19 21 c22
24 20 25 -14 6z m-214 -243 c-20 -39 -36 -49 -29 -20 6 24 33 61 40 54 3 -2
-3 -18 -11 -34z m-31 -94 c-7 -35 -12 -44 -21 -35 -9 8 6 67 17 67 5 0 7 -14
4 -32z"/>
</g>
</svg>
